<?xml version="1.0" standalone="no"?>
<!DOCTYPE svg PUBLIC "-//W3C//DTD SVG 1.1//EN" "http://www.w3.org/Graphics/SVG/1.1/DTD/svg11.dtd">
<svg xmlns="http://www.w3.org/2000/svg">
<metadata>Copyright (C) 2021 by original authors @ fontello.com</metadata>
<defs>
<font id="fontello" horiz-adv-x="1000" >
<font-face font-family="fontello" font-weight="400" font-stretch="normal" units-per-em="1000" ascent="850" descent="-150" />
<missing-glyph horiz-adv-x="1000" />
<glyph glyph-name="picture-1" unicode="&#x270d;" d="M0-68l0 836 1000 0 0-836-1000 0z m76 78l848 0 0 680-848 0 0-680z m90 80l0 59 150 195 102-86 193 291 223-228 0-231-668 0z m0 416q0 37 24 62t62 24q33 0 58-24t24-62q0-33-24-57t-58-25q-37 0-62 25t-24 57z" horiz-adv-x="1000" />

<glyph glyph-name="dgdatabase1" unicode="&#xe800;" d="M0 53l0 594q0 98 131 150t307 53 306-53 131-150l0-594q0-98-131-150t-306-53-307 53-131 150z m63 0q0-59 109-100t266-41 265 41 109 100l0 117q-46-48-150-75t-224-26-225 26-150 75l0-117z m0 188q0-59 109-100t266-41 265 41 109 100l0 117q-46-49-150-75t-224-27-225 27-150 75l0-117z m0 187q0-58 109-99t266-41 265 41 109 99l0 108q-58-45-160-69t-214-23-215 23-160 69l0-108z m0 219q0-59 109-100t266-41 265 41 109 100-109 99-265 41-266-41-109-99z m625-609q0 13 8 22t23 9 22-9 9-22-9-23-22-9-23 9-8 23z m0 187q0 14 8 22t23 9 22-9 9-22-9-22-22-9-23 9-8 22z m0 188q0 13 8 22t23 9 22-9 9-22-9-23-22-9-23 9-8 23z" horiz-adv-x="875" />

<glyph glyph-name="dg-print" unicode="&#xe801;" d="M214-7h500v143h-500v-143z m0 357h500v214h-89q-22 0-38 16t-16 38v89h-357v-357z m643-36q0 15-10 25t-26 11-25-11-10-25 10-25 25-10 26 10 10 25z m72 0v-232q0-7-6-12t-12-6h-125v-89q0-22-16-38t-38-16h-536q-22 0-37 16t-16 38v89h-125q-7 0-13 6t-5 12v232q0 44 32 76t75 31h36v304q0 22 16 38t37 16h375q23 0 50-12t42-26l85-85q15-16 27-43t11-49v-143h35q45 0 76-31t32-76z" horiz-adv-x="928.6" />

<glyph glyph-name="dg-edit" unicode="&#xe802;" d="M90 589l0-593 444 0 0 262 90 101 0-453-624 0 0 760 541 0-75-77-376 0z m749 180c35-34 32-88-3-124l-57-56 17 75-63 64-74-17 56 57c35 35 90 35 124 1z m-219-99c0 3 65 20 75 23l1 1 67-69c-4 0-23-75-23-75l-371-384-159-36-2 1 41 158z m-247-422l-45 46-35-6-23-22-10-40 46-45 39 9 23 23z" horiz-adv-x="864" />

<glyph glyph-name="dg-tags" unicode="&#xe803;" d="M250 600q0 30-21 51t-50 20-51-20-21-51 21-50 51-21 50 21 21 50z m595-321q0-30-20-51l-274-274q-22-21-51-21-30 0-50 21l-399 399q-21 21-36 57t-15 65v232q0 29 21 50t50 22h233q29 0 65-15t57-36l399-399q20-21 20-50z m215 0q0-30-21-51l-274-274q-22-21-51-21-20 0-33 8t-29 25l262 262q21 21 21 51 0 29-21 50l-399 399q-21 21-57 36t-65 15h125q29 0 65-15t57-36l399-399q21-21 21-50z" horiz-adv-x="1071.4" />

<glyph glyph-name="dg-goto" unicode="&#xe804;" d="M724 639c6 3 10 11 7 19-79 180-296-9-328-180-1 120-172 146-197 24-2-11 3-24 15-26 13-3 25-7 36-12-60-62-148-16-132 83 15 95 136 89 204 69 13-4 23 4 28 16 11 29 34 74 36 110 1 2 1 4 2 5 10 0 18 11 9 21-193 218-551-197-339-394 89-83 303-61 335 70-1-41 9-78 37-108 124-135 366 161 287 303z m-167-144c-15 3-23 15-20 30 5 21 33 51 55 47 5-1 10-3 14-6 5-36-11-79-49-71z m436-279c-79 62-156 128-248 172-17 8-33-2-35-20-6-56-8-112-10-167-206-46-420 31-628-8-10 10-30 8-33-9 0 0-1-1-1-1-2-4-3-8-2-12-9-36-22-72-3-99-15-5-13-30 5-31 222-8 443 15 662 43 1-58 1-117-1-175 0-1 0-1 0-1-17-28 27-53 43-26 68 113 163 205 252 301 7 8 9 24-1 33z" horiz-adv-x="1000" />

<glyph glyph-name="dg-check" unicode="&#xe805;" d="M624 63c14-4 27-7 41-9-20-57-74-98-138-98h-379c-82 0-148 66-148 147v464c0 81 66 147 148 147h113c10 72 71 127 146 127h204c82 0 148-66 148-148v-100c-14 3-28 5-42 5v95c0 58-48 106-106 106h-204c-51 0-94-36-104-85h224c71 0 131-50 144-117-13-2-27-5-41-9-10 48-52 84-103 84h-379c-58 0-106-47-106-105v-464c0-58 48-105 106-105h379c44 0 81 27 97 65z m208 41c-122-70-278-28-348 93-70 122-28 278 93 348 122 70 278 29 348-93 70-122 28-278-93-348z m-21 37c101 58 136 188 78 290-59 102-189 136-291 78-101-59-136-189-78-290s189-137 291-78z m85-21l-110-63 85-146 109 63-84 146z m96-166l-110-63c17-31 56-41 86-23 31 17 41 56 24 86z m-585 608h-281v-32h281v32z m-65-141h-216v-31h216v31z m-216-172h216v32h-216v-32z m0-140h281v31h-281v-31z m537 172l-65 72-31-28 92-102 181 150-27 33-150-125z" horiz-adv-x="1000" />

<glyph glyph-name="dg-signal" unicode="&#xe806;" d="M560 836l-512-153a31 31 0 0 1 7-60l645-34-673-118a31 31 0 0 1 4-61l393-23-94-23a31 31 0 0 1-4-59l245-94-383-36a31 31 0 0 1-5-60l375-101-127-16a31 31 0 0 1-25-40l37-107 58 20-25 71 243 31a31 31 0 0 1 4 60l-360 97 343 32a31 31 0 0 1 8 59l-274 106 197 48a31 31 0 0 1-5 61l-337 20 682 120a31 31 0 0 1-4 61l-738 38 343 102z" horiz-adv-x="1000" />

<glyph glyph-name="dg-digression" unicode="&#xe807;" d="M1000 100v-71q0-15-11-25t-25-11h-928q-15 0-25 11t-11 25v71q0 15 11 25t25 11h928q15 0 25-11t11-25z m-214 214v-71q0-15-11-25t-25-11h-500q-14 0-25 11t-11 25v71q0 15 11 25t25 11h500q15 0 25-11t11-25z m143 215v-72q0-14-11-25t-25-11h-786q-14 0-25 11t-11 25v72q0 14 11 25t25 10h786q14 0 25-10t11-25z m-215 214v-72q0-14-10-25t-25-10h-358q-14 0-25 10t-10 25v72q0 14 10 25t25 11h358q14 0 25-11t10-25z" horiz-adv-x="1000" />

<glyph glyph-name="dg-dig-filter" unicode="&#xe808;" d="M796-148l38 122-34 122 194-127-99-59z m-559 934h64v-817h-64v817z m632-778l0-64-632-3 0 64 632 3z m-823 695h447v-173h-447z m49-277h335v-173h-335z m-76-188h488v-173h-488z" horiz-adv-x="1000" />

<glyph glyph-name="dg-digressions2" unicode="&#xe809;" d="M429 845h114v-985h-114v985z m-198-153h522v-173h-522v173z m57-277h391v-173h-391v173z m-90-188h571v-173h-571v173z" horiz-adv-x="1000" />

<glyph glyph-name="dg-zero-line" unicode="&#xe80a;" d="M779 843v-362l-578-508v-125h30v111l578 509v375z m-537 3l-30-1 26-472 547-203 5-320 30 0-5 341-548 203z" horiz-adv-x="1000" />

<glyph glyph-name="dg-switch" unicode="&#xe80b;" d="M964 667l13 12c7 8 7 20 0 28-8 8-20 8-28 0l-13-13-150 150c-8 8-20 8-28 0-7-7-7-20 0-27l151-150-105-105-54 53c-8 8-20 8-28 0s-7-20 0-27l54-54-105-105-204 204 105 105 46-46c4-4 9-6 14-6s10 2 14 6c8 7 8 20 0 27l-47 47 51 51c8 7 8 20 0 27s-20 8-28 0l-50-50-8 7c-7 8-20 8-27 0-8-8-8-20 0-28l7-7-112-112c-3-1-6-2-9-5-2-2-4-6-5-9l-2-2v68h12c11 0 19 8 19 19 0 11-8 20-19 20h-12v86c0 10-9 19-19 19s-20-9-20-19v-86h-289v86c0 10-9 19-20 19s-19-9-19-19v-86h-12c-11 0-19-9-19-20 0-11 8-19 19-19h12v-149h-12c-11 0-19-9-19-19 0-11 8-20 19-20h12v-148h-12c-11 0-19-9-19-20 0-11 8-19 19-19h12v-149h-12c-11 0-19-9-19-19 0-11 8-20 19-20h12v-149h-12c-11 0-19-8-19-19 0-11 8-20 19-20h12v-86c0-10 9-19 19-19s20 9 20 19v57c0 10 0 20 0 29h289v-86c0-10 9-19 20-19s19 9 19 19v57c0 10 0 20 1 29h11c11 0 19 9 19 20 0 11-8 19-19 19h-7c14 92 54 178 118 247l9-9c3-4 8-6 13-6s10 2 14 6c8 8 8 20 0 28l-9 9 105 105 9-9c4-4 9-6 14-6s10 2 14 6c7 7 7 20 0 27l-9 9 105 105 9-9c4-4 9-6 14-6 5 0 10 2 13 6 8 8 8 20 0 28l-9 9 105 105 9-9c4-4 9-6 14-6s10 2 14 6c8 7 8 20 0 27z m-876 39h289v-107l-42-42h-247z m289-524h-247c6 16 12 32 18 48 15 35 32 68 51 101h178z m0 188h-154c29 42 61 81 97 117l31 31h26z m-289 148h208l-3-3c-44-44-83-93-116-145h-89z m0-187h66c-16-28-29-57-42-86-8-21-16-42-23-63h-1z m3-337c4 51 13 101 27 149h259v-149z m325 127v243l95-95c-40-44-72-94-95-148z m122 175l-122 123c0 0 0 0 0 0v99h12c11 0 19 9 19 20 0 10-8 19-19 19h-12v26l23 23 204-205z m146 337c5 0 10 2 14 6l0 0c7 8 7 20-1 28-7 7-20 7-27-1-8-7-8-20 0-27 4-4 9-6 14-6z" horiz-adv-x="1000" />

<glyph glyph-name="dg-passport-data2" unicode="&#xe80c;" d="M271 600v229h-83v-958h83v562z m458 83v-335c31-5 59-17 84-34v515h-84v-146z m-625 84h84v-167h-84v167z m0-334h84v-166h-84v166z m0-333h84v-167h-84v167z m167 0v-167h361c-52 50-104 104-124 167h-237z m0 167h266c35 50 94 83 161 83 11 0 21-1 31-2v85h-458v-166z m0 333h458v167h-458z m542 167h83v-167h-83v167z m83-334h-83v-119c18-13 33-29 46-47h37v166z m-198-562c-77 78-198 166-198 281 0 109 89 198 198 198s198-89 198-198c0-115-121-203-198-281z m0 187c52 0 94 42 94 94 0 52-42 94-94 94-52 0-94-42-94-94 0-52 42-94 94-94z m198 521c11 0 21 10 21 21v167c0 11-10 21-21 21h-63v41c0 12-9 21-20 21h-84c-11 0-21-9-21-21v-41h-416v41c0 12-10 21-21 21h-83c-12 0-21-9-21-21v-41h-63c-11 0-21-10-21-21v-167c0-11 10-21 21-21h63v-125h-63c-11 0-21-9-21-21v-166c0-12 10-21 21-21h63v-125h-63c-11 0-21-9-21-21v-167c0-11 10-21 21-21h63v-41c0-12 9-21 21-21h83c11 0 21 9 21 21v41h332c5-4 10-9 15-13 15-15 30-29 44-43 4-4 9-6 15-6 6 0 11 2 15 6 13 14 28 28 44 43 75 70 160 149 160 253 0 34-8 65-21 94h0c11 0 21 9 21 21v166c0 12-10 21-21 21h-63v125l63 0z m-21 167v-125h-42v125h42z m-125 62h42v-458c-3 1-6 2-9 3 0 1 0 1 0 1-1 0-3 1-4 1 0 0-1 1-2 1 0 0-1 1-2 1-1 0-2 1-3 1-1 0-1 0-2 1-1 0-2 0-3 1-1 0-1 0-2 0-1 1-2 1-4 1 0 1-1 1-1 1-1 0-3 1-4 1 0 0-1 0-2 0-1 1-2 1-3 1 0 0-1 1-1 1v443z m-47-437c-1 0-3 0-5 0-2 0-4 0-6 0-1 0-1 0-1 0-2 0-4 0-5 0-1 0-1-1-1-1-2 0-4 0-6 0 0 0 0 0 0 0-34-3-65-13-92-30-1 0-1 0-1 0-1-1-3-2-4-2 0-1-1-1-1-1-1-1-2-1-2-2-20-12-38-29-53-47h-234v125h416v-42c0 0-1 0-2 0-1 0-2 0-3 0z m-221-250h-190v125h208c-13-29-21-60-21-94 0-11 1-21 3-31z m226 333h-416v125h416v-125z m0 292v-42h-125c-11 0-20-9-20-21 0-11 9-20 20-20h125v-42h-416v125h416z m-583-125v125h42v-125h-42z m0-333v125h42v-125h-42z m0-334v125h42v-125h-42z m125-62h-42v916h42v-916z m42 104h125c11 0 21 9 21 21s-10 21-21 21h-125v41h201c18-46 52-87 88-125h-289v42z m437-67c-11-10-21-19-31-29-10 10-20 19-31 29-68 65-146 137-146 223 0 64 34 120 84 151 1 0 1 1 2 1 2 1 4 2 5 3 2 1 3 1 4 2 1 0 1 1 2 1 3 1 5 3 8 4 0 0 0 0 0 0 5 2 10 4 15 6 0 0 0 0 0 0 3 1 6 2 10 3 0 0 0 0 0 0 5 1 9 2 14 3 1 0 2 0 3 1 2 0 3 0 5 0 2 1 4 1 5 1 1 0 2 0 3 0 2 1 5 1 7 1 1 0 1 0 2 0 3 0 5 0 8 0 3 0 5 0 8 0 1 0 2 0 3 0 2 0 4 0 5-1 1 0 2 0 3 0 2 0 4 0 6-1 1 0 2 0 2 0 3 0 5-1 8-1 0 0 1 0 1-1 3 0 5-1 8-1 0 0 0 0 1-1 5-1 10-3 15-4 1 0 1-1 1-1 3-1 5-2 8-3 0 0 0 0 0 0 63-27 108-90 108-163 0-86-78-158-146-223z m146 484v-125h-5c-11 13-23 25-37 36v89h42z m-396-375h-2c-11 0-21-10-21-21s10-21 21-21h2c11 0 20 9 20 21 0 11-9 21-20 21z m43 625h1c12 0 21 9 21 20 0 12-9 21-21 21h-1c-12 0-21-9-21-21s9-20 21-20z m176-396c-63 0-115-52-115-115s52-114 115-114c63 0 115 51 115 114 0 63-52 115-115 115z m0-188c-40 0-73 33-73 73s33 73 73 73c40 0 73-33 73-73 0-40-33-73-73-73z" horiz-adv-x="1000" />

<glyph glyph-name="dg-main-param" unicode="&#xe80d;" d="M165 741c-50 0-89-35-117-105-28-69-43-165-43-287 0-123 15-218 43-288 28-69 67-104 117-104 50 0 89 35 117 104s43 165 43 288c0 122-14 218-43 287s-67 105-117 105z m370 0c-51 0-92-36-122-106-31-70-46-166-46-286 0-121 15-216 46-287 30-70 71-105 122-105 18 0 34 5 50 14s32 23 46 42v156c-15-24-29-42-44-54s-29-17-45-17c-29 0-51 22-68 67s-24 106-24 184c0 78 8 139 24 184s39 66 68 66c16 0 31-5 45-17s29-29 44-54v156c-14 19-30 33-46 42s-32 15-50 15z m163-14v-756h80v321h118v-321h80v756h-80v-288h-118v288z m-533-128c25 0 44-21 57-65s20-106 20-185c0-80-6-141-20-185s-32-66-57-66c-24 0-43 22-57 66s-20 105-20 185c0 79 7 141 20 185s33 65 57 65z m-159 228v-39h990v39z m0-908v-40h990v40z" horiz-adv-x="1000" />

<glyph glyph-name="dg-main-param-plus" unicode="&#xe80e;" d="M147 741c-44 0-79-35-104-105-25-69-38-165-38-287 0-123 13-218 38-288 25-69 60-104 104-104 44 0 78 35 103 104s38 165 38 288c0 122-13 218-38 287s-59 105-103 105z m327 0c-46 0-82-36-109-106-26-70-40-166-40-286 0-121 14-216 40-287 27-70 63-105 109-105 15 0 30 5 44 14s28 23 41 42v156c-13-24-26-42-39-54s-26-17-40-17c-25 0-45 22-60 67s-21 106-21 184c0 78 7 139 21 184s35 66 60 66c14 0 27-5 40-17s26-29 39-54v156c-13 19-27 33-41 42s-29 15-44 15z m144-14v-756h70v321h105v-321h71v756h-71v-288h-105v288z m-471-128c21 0 38-21 50-65s18-106 18-185c0-80-6-141-18-185s-29-66-50-66c-22 0-39 22-51 66s-17 105-17 185c0 79 6 141 17 185s29 65 51 65z m-141 228v-39h990v39z m0-908v-40h990v40z m959 383v-146h145v-80h-145v-146h-80v146h-146v80h146v146z" horiz-adv-x="1000" />

<glyph glyph-name="dg-uskk" unicode="&#xe80f;" d="M6 827v-39h990v39z m0-908v-40h990v40z m767 636h56v-200l63 200h61l-75-240 82-352h-59l-56 245-16-51v-194h-56z m-261 197h60v-325l95 325h68l-93-320 99-469h-67l-71 336-31-106v-230h-60z m-52-216v-154q-11 27-23 39-11 13-24 13-23 0-37-46-13-46-13-129t13-130q14-46 37-46 13 0 25 14 12 13 22 39v-155q-13-17-27-25-13-8-27-8-48 0-75 82-26 82-26 229t26 228q27 82 75 82 14 0 27-8 14-8 27-25z m-271-442q-7-44-16-73-19-58-72-58h-11v154h16q22 0 28 37 1 8 2 15l-84 583h63l52-359 50 359h64z" horiz-adv-x="1000" />

<glyph glyph-name="dg-uskb" unicode="&#xe810;" d="M6 827v-39h990v39z m0-908v-40h990v40z m839 154q16 0 22 19 8 21 8 60 0 38-8 58-6 19-22 19h-28v-156z m4-110h-80v627h141v-122h-93v-117h32q35 0 55-49 19-45 19-145 0-100-19-144-20-50-55-50z m-337 789h60v-325l95 325h68l-93-320 99-469h-67l-71 336-31-106v-230h-60z m-52-216v-154q-11 27-23 39-11 13-24 13-23 0-37-46-13-46-13-129t13-130q14-46 37-46 13 0 25 14 12 13 22 39v-155q-13-17-27-25-13-8-27-8-48 0-75 82-26 82-26 229t26 228q27 82 75 82 14 0 27-8 14-8 27-25z m-271-442q-7-44-16-73-19-58-72-58h-11v154h16q22 0 28 37 1 8 2 15l-84 583h63l52-359 50 359h64z" horiz-adv-x="1000" />

<glyph glyph-name="dg-uskb-minus" unicode="&#xe811;" d="M6 827v-39h990v39z m0-908v-40h990v40z m839 154q16 0 22 19 8 21 8 60 0 38-8 58-6 19-22 19h-28v-156z m4-110h-80v627h141v-122h-93v-117h32q35 0 55-49 19-45 19-145 0-100-19-144-20-50-55-50z m-337 789h60v-325l95 325h68l-93-320 99-469h-67l-71 336-31-106v-230h-60z m-52-216v-154q-11 27-23 39-11 13-24 13-23 0-37-46-13-46-13-129t13-130q14-46 37-46 13 0 25 14 12 13 22 39v-155q-13-17-27-25-13-8-27-8-48 0-75 82-26 82-26 229t26 228q27 82 75 82 14 0 27-8 14-8 27-25z m-271-442q-7-44-16-73-19-58-72-58h-11v154h16q22 0 28 37 1 8 2 15l-84 583h63l52-359 50 359h64z" horiz-adv-x="1000" />

<glyph glyph-name="dg-joint" unicode="&#xe812;" d="M472 848v-430h56v430z m70-411l-45-78-39 78c14-13 70-13 84 0z m459 310v-3-3-238h-451v122 16 15 15 15 16 15c0 0 0 9 0 15 1 4 3 7 5 11 4 5 10 4 10 4h15 29 59 97z m-2-51h-408v-149h408z m2-159v-6-462h-451v468z m-2-34h-410v-400h410z m2-382v-6-160h-451v166z m-2-52h-410v-63h410z m-291 332c56 0 102-44 102-98 0-54-46-98-102-98-56 0-101 44-101 98 0 54 45 98 101 98z m0-33c-44 0-67-22-67-65 0-43 23-65 67-65 45 0 67 22 67 65 0 43-22 65-67 65z m-708 379v-3-3-238h450v122 16 15 15 15 16 15c0 0 1 9 0 15 0 4-2 7-4 11-4 5-10 4-10 4h-15-30-68-87z m2-51h408v-149h-408z m-2-159v-6-462h450v468z m2-34h410v-400h-410z m-2-382v-6-160h450v166z m2-52h410v-63h-410z m290 332c-56 0-101-44-101-98 0-54 45-98 101-98 56 0 102 44 102 98 0 54-46 98-102 98z m0-33c45 0 67-22 67-65 0-43-22-65-67-65-44 0-67 22-67 65 0 43 23 65 67 65z m180-519v430h56v-430z m70 412l-45 77-39-77c14 12 70 12 84 0z" horiz-adv-x="1000" />

<glyph glyph-name="dg-rail-profile" unicode="&#xe813;" d="M504-148h-499v50c0 0 428-7 428 90v467c0 0 0 78-50 98s-172 49-177 127c-5 77-5 94 24 122s232 40 272 40c39 0 243-13 272-40s29-45 24-122c-6-78-127-108-177-127s-51-98-51-98v-467c0-97 428-90 428-90v-50h-499z m0 8h-491v35c0 0 428-8 428 89v483c0 0 0 77-50 97s-172 50-177 127c-5 78-5 80 24 107s224 40 264 40c39 0 235-13 264-40s29-29 24-107c-6-77-127-107-177-127s-50-97-50-97v-483c0-97 428-89 428-89v-35h-492z" horiz-adv-x="1000" />

<glyph glyph-name="dg-train_profile" unicode="&#xe814;" d="M500 850c-232 0-421-26-421-210v-500c0-100 84-185 184-185l-79-79v-26h632v26l-79 79c100 0 184 85 184 185v500c0 184-189 210-421 210z m-237-789c-42 0-79 36-79 79s37 78 79 78 79-36 79-78-37-79-79-79z m184 315h-263v264h263v-264z m290-315c-42 0-79 36-79 79s37 78 79 78 79-36 79-78-37-79-79-79z m79 315h-263v264h263v-264z" horiz-adv-x="1000" />

<glyph glyph-name="dg-marked-sleeper" unicode="&#xe815;" d="M161 733h-78v-94h856v94z m102 0h498v-94h-498z m597-219h79v-94h-79z m-777 0h78v-94h-78z m180 0h498v-94h-498z m597-219h79v-93h-79z m-777 0h78v-93h-78z m180 0h498v-93h-498z m597-218h79v-94h-79z m-777 0h78v-94h-78z m180 0h498v-94h-498z m487 754h100v-962h-100z m-600 0h100v-962h-100z m514-837c-5 0-10-2-14-5s-5-9-5-14 2-10 5-14c4-3 9-6 14-6s10 3 14 6c4 4 6 9 6 14s-2 10-6 14c-4 3-9 5-14 5z m264 618c11 0 19 9 19 19v94c0 11-8 20-19 20h-59v86c0 10-9 19-19 19s-20-9-20-19v-962c0-10 9-19 20-19s19 9 19 19v86h59c11 0 19 9 19 20v94c0 11-8 19-19 19h-59v86h59c11 0 19 9 19 20v94c0 10-8 19-19 19h-59v86h59c11 0 19 9 19 20v93c0 11-8 20-19 20h-59v86z m-20 94v-55h-39v55z m0-657v-55h-39v55z m0 219v-55h-39v55z m0 219v-55h-39v55z m-158 363c-11 0-19-9-19-19v-86h-327c-10 0-19-9-19-20s9-19 19-19h327v-55h-461v180c0 10-9 19-20 19s-19-9-19-19v-962c0-10 8-19 19-19s20 9 20 19v86h313c11 0 20 9 20 20s-9 19-20 19h-313v55h461v-180c0-10 8-19 19-19s20 9 20 19v962c0 10-9 19-20 19z m-480-457h461v-86h-461z m0 39v55h461v-55z m0-164h461v-55h-461z m461 344v-86h-461v86z m-461-524v86h461v-86z m-120 762c-10 0-19-9-19-19v-86h-59c-10 0-19-9-19-20v-94c0-10 9-19 19-19h59v-86h-59c-10 0-19-9-19-20v-93c0-11 9-20 19-20h59v-86h-59c-10 0-19-9-19-19v-94c0-11 9-20 19-20h59v-86h-59c-10 0-19-8-19-19v-94c0-11 9-20 19-20h59v-86c0-10 9-19 19-19s20 9 20 19v962c0 10-9 19-20 19z m-58-199v55h39v-55z m0-219v55h39v-55z m0-219v55h39v-55z m0-219v55h39v-55z m237 712c5 0 10 2 14 5s5 9 5 14-2 10-5 14c-4 3-9 6-14 6-5 0-10-3-14-6-4-4-6-9-6-14s2-10 6-14c4-3 9-5 14-5z" horiz-adv-x="1000" />

<glyph glyph-name="dg-add-param" unicode="&#xe816;" d="M1000 350c0-276-224-500-500-500-276 0-500 224-500 500 0 22 18 39 39 39s39-17 39-39c0-233 189-422 422-422 233 0 422 189 422 422 0 233-189 422-422 422-22 0-39 17-39 39s17 39 39 39c276 0 500-224 500-500z m-687 379l51 21c20 9 29 31 21 51s-31 30-51 21l-51-20c-19-9-29-32-21-52 9-19 31-29 51-21z m-131-100l39 39c15 15 15 40 0 55s-40 15-55 0l-39-39c-15-15-15-40 0-55 15-15 40-15 55 0z m-133-164c20-8 43 1 51 21l21 51c8 20-1 43-21 51-20 8-43-1-51-21l-21-51c-9-20 1-43 21-51z m451 80c-22 0-39-17-39-39v-117h-117c-22 0-39-17-39-39s17-39 39-39h117v-117c0-22 17-39 39-39s39 17 39 39v117h117c22 0 39 17 39 39s-17 39-39 39h-117v117c0 22-17 39-39 39z" horiz-adv-x="1000" />

<glyph glyph-name="dg-microsoftexcel" unicode="&#xe817;" d="M981 721h-335v-62h99v-98h-99v-32h99v-98h-99v-32h99v-93h-99v-37h99v-93h-99v-37h99v-94h-99v-68h335c6 1 10 8 14 18 3 11 5 20 5 27v687c0 6-2 9-5 10-4 1-8 2-14 2z m-43-676h-161v94h161v-94z m0 131h-161v93h161z m0 130h-161v93h161v-93z m0 125h-161v98h161v-98z m0 130h-161v98h161v-98z m-938 175v-775l590-102v982l-590-105z m350-586c-2 6-13 32-32 78-19 45-30 72-33 79h-1l-63-150-85 6 100 187-92 188 87 4 57-147h1l64 154 89 5-106-203 110-207-96 6z" horiz-adv-x="1000" />

<glyph glyph-name="dg-microsoftword" unicode="&#xe818;" d="M1000 695v-690c0-6-2-11-6-14-4-4-9-6-15-6h-357v96h291v43h-291v53h291v44h-291v54h291v43h-291v53h291v44h-291v53h291v44h-291v54h291v42h-291v108h357c6 0 11-2 15-7 4-4 6-9 6-14z m-431 128v-947l-569 99v747l569 102z m-86-279l-71-5-46-282h-1c-2 13-11 60-26 140l-26 136-67-3-27-133c-15-77-24-122-26-135h-1l-41 261-61-4 66-328 68-4 25 127c15 75 24 119 26 131h2c2-13 11-57 26-134l25-131 74-5 82 369z" horiz-adv-x="1000" />

<glyph glyph-name="done" unicode="&#xe819;" d="M462 838c-114-13-215-82-269-184-27-51-39-103-39-164 0-64 10-124 34-192 23-69 55-132 101-202 48-73 107-145 170-205 34-33 39-35 52-27 9 5 57 52 82 80 119 132 199 269 234 399 13 51 18 83 19 133 2 53-2 81-16 124-25 79-80 147-153 191-62 38-142 55-215 47z m64-40c75-7 141-38 193-91 60-62 91-142 87-232-7-167-98-348-265-526-17-18-33-34-36-36-5-3-5-3-11 1-7 5-54 55-80 85-82 96-145 197-182 296-36 97-47 193-30 267 24 103 100 188 200 221 44 14 82 19 124 15z m-52-82c-101-14-177-87-195-185-4-24-3-67 3-90 25-102 114-171 217-172 29 0 50 4 75 12 72 25 126 85 145 159 5 23 7 68 2 91-17 91-82 160-171 181-18 4-61 7-76 4z m72-45c65-17 116-69 133-134 5-24 5-66 0-88-10-34-23-58-47-82-24-25-51-42-85-52-13-4-20-4-47-4s-34 0-47 4c-34 10-61 27-85 52-24 24-37 48-46 82-6 22-6 64 0 88 18 73 79 128 156 139 18 2 47 0 68-5z m66-79c-3-2-39-37-79-78l-74-74-36 36c-36 36-37 37-45 37-14 0-24-13-19-26 3-8 87-92 94-95 5-1 8-1 12 0 8 3 174 170 177 178 4 11-7 25-20 25-2 0-7-2-10-3z" horiz-adv-x="1000" />

<glyph glyph-name="dg-print-1" unicode="&#xe81a;" d="M0-50l0 333 116 129 85 0 0-64-56 0-80-89 0-245 795 0 0 245-80 89-56 0 0 64 85 0 115-129 0-333-924 0z m201 319l0 330 151 151 372 0 0-481-523 0z m60 61l403 0 0 360-252 0 0-151-151 0 0-209z" horiz-adv-x="924" />

<glyph glyph-name="chart-line" unicode="&#xe81b;" d="M34 284q-42 10-32 56 10 42 54 32l98-24-52-80z m890-12q14 12 33 11t31-15q32-32-2-64l-252-226q-12-12-30-12-14 0-28 10l-286 220-54 14 50 80 36-8q12-4 16-8l264-204z m-490 220l-350-550q-12-22-38-22-12 0-24 8-16 10-20 29t6 33l374 588q8 16 28 20 18 6 36-6l246-156 226 326q10 16 28 19t34-9q38-24 12-62l-252-362q-24-36-62-12z" horiz-adv-x="1003" />

<glyph glyph-name="dg-goto5" unicode="&#xe81c;" d="M500 768c-56 1-112-10-163-32-165-74-307-276-307-276l34-28c0 0 142 195 290 261 89 40 203 38 292-4 114-53 154-85 289-272l34 28c-137 189-189 232-306 287-50 23-106 36-163 36z m395-76l92-309-254 170c75 3 141 59 162 139z m-667-134c0 0-65-66-94-108-79-116-100-139-100-139l23-24c0 0 24 26 103 142 24 36 90 104 90 104z m-129-498l450-13 28 58-451 13z m86 147l417-12 28 58-417 12z m75 137l398-12 28 58-398 12z m81 137l367-11 28 58-367 11z m-236-537l43-2 363 706-42 1z m326-14l43-1 230 710-42 1z" horiz-adv-x="1000" />

<glyph glyph-name="dg-printer5" unicode="&#xe81d;" d="M813 6v-31c0-35-28-63-63-63h-469c-34 0-62 28-62 63v31h-63c-52 0-93 42-93 94v281c0 52 41 94 93 94h63v219c0 35 28 62 62 62h469c35 0 63-28 63-62v-219h62c52 0 94-42 94-94v-281c0-52-42-94-94-94h-62z m-594 32v187h594v-187h62c34 0 63 27 63 62v281c0 35-29 63-63 63h-718c-35 0-63-28-63-63v-281c0-34 28-62 63-62h62z m62 687c-17 0-31-14-31-31v-219h531v219c0 17-14 31-31 31h-469z m-31-531v-219c0-17 14-31 31-31h469c17 0 31 14 31 31v219h-531z m531 125c18 0 32 14 32 31s-14 31-32 31c-17 0-31-14-31-31s14-31 31-31v0z m-500-188v-31h469v31h-469z m0-93v-32h469v32h-469z" horiz-adv-x="1000" />

<glyph glyph-name="resize-full" unicode="&#xe81e;" d="M573 767l261 0 0-260q0-22-16-37t-37-16-37 16-15 37l0 82-171-171q-15-15-37-15-22 0-37 15t-15 37 15 37l171 171-82 0q-22 0-37 15t-15 37 15 37 37 15z m-297-484q15 15 37 15t36-15 15-37-15-37l-171-171 82 0q21 0 37-16t16-37-16-36-37-15l-260 0 0 260q0 21 16 37t37 16 36-16 15-37l0-82z m-120 67q-21 0-37 16t-15 37l0 260 261 0q21 0 36-16t15-37-15-36-36-15l-156 0 0-156q0-21-16-37t-37-16z m522 0q21 0 36-15t15-37l0-260-260 0q-21 0-37 15t-16 37 16 37 37 15l156 0 0 156q0 21 16 37t37 15z" horiz-adv-x="834" />

<glyph glyph-name="resize-small" unicode="&#xe81f;" d="M704 33l-128-130 0 336 335 0-127-128 127-129-79-79z m-686 429l128 129-127 126 79 79 126-126 129 127 0-335-335 0z m0-480l128 129-128 128 335 0 0-336-129 130-127-130z m558 480l0 335 128-127 128 126 78-79-126-126 127-129-335 0z" horiz-adv-x="928" />

<glyph glyph-name="resize-full-1" unicode="&#xe820;" d="M784 111l127 128 0-336-335 0 128 130-128 127 79 79z m-431 686l-129-127 128-127-80-80-126 128-128-129 0 335 335 0z m0-637l-129-127 129-130-335 0 0 336 128-128 128 128z m558 637l0-335-127 129-128-128-79 80 127 127-128 127 335 0z" horiz-adv-x="928" />

<glyph glyph-name="resize-normal" unicode="&#xe821;" d="M110 298l255 0 0-260q0-23-12-38t-34-15-37 16-16 37l0 89-177-178q-15-15-36-15-23 0-38 15t-15 37 15 37l171 171-76 0q-21 0-36 16t-15 37 15 36 36 15z m46 105q-21 0-37 15t-15 36l0 209 209 0q21 0 36-16t16-37-16-36-36-15l-104 0 0-105q0-21-16-36t-37-15z m522-105q21 0 36-15t15-36l0-209-208 0q-21 0-37 15t-15 37 15 37 37 15l104 0 0 105q0 21 16 36t37 15z m67 454q15 15 36 15t37-15 15-37-15-37l-172-171 83 0q21 0 37-16t15-37-15-36-37-15l-260 0 0 260q0 21 15 37t37 15 37-15 15-37l0-83z" horiz-adv-x="833" />

<glyph glyph-name="dg-check2" unicode="&#xe822;" d="M786 331v-177q0-67-47-114t-114-47h-464q-67 0-114 47t-47 114v464q0 66 47 113t114 48h464q35 0 65-14 9-4 10-13 2-10-5-16l-27-28q-6-5-13-5-1 0-5 1-13 3-25 3h-464q-37 0-63-26t-27-63v-464q0-37 27-63t63-27h464q37 0 63 27t26 63v141q0 8 5 13l36 35q6 6 13 6 3 0 7-2 11-4 11-16z m129 273l-455-454q-13-14-31-14t-32 14l-240 240q-14 13-14 31t14 32l61 62q14 13 32 13t32-13l147-147 361 361q13 13 31 13t32-13l62-61q13-14 13-32t-13-32z" horiz-adv-x="928.6" />

<glyph glyph-name="reverse-na" unicode="&#xe823;" d="M212 349l-207-236h30l0 1 165 199v-4l-1-58 1034 5-2-143h15l1 165h-1036z m-206-236l206-232-1 71 1036 0 0 161h-16l-1-144-1038 2 1-43-158 185z m463 728l-68-29c-156 0-289-118-399-355-4-29 28-54 96-74h646 506l-2 458h-504z m6-26h264 485l2-406h-487-620c-66 18-97 39-93 66 106 209 234 314 383 314z" horiz-adv-x="1250" />

<glyph glyph-name="pencil-circled" unicode="&#xe824;" d="M0 350q0 207 147 354t353 146 354-146 146-354-146-354-354-146-353 146-147 354z m174-287l219 43-176 176z m86 250l168-166 269 271-166 166z m342 316q-2-25 15-41l84-84q18-17 43-16t44 19 20 44-17 43l-84 84q-16 16-39 16-27 0-47-20-17-19-19-45z" horiz-adv-x="1000" />

<glyph glyph-name="plus-circled" unicode="&#xe825;" d="M0 350q0 207 147 354t353 146 354-146 146-354-146-354-354-146-353 146-147 354z m219-80l201 0 0-201 160 0 0 201 201 0 0 160-201 0 0 201-160 0 0-201-201 0 0-160z" horiz-adv-x="1000" />

<glyph glyph-name="ok-circled" unicode="&#xe826;" d="M0 350q0 207 147 354t353 146 354-146 146-354-146-354-354-146-353 146-147 354z m182-57l105-105 104-104 103 104 324 324-103 104-324-325-106 106z" horiz-adv-x="1000" />

<glyph glyph-name="cancel-circled" unicode="&#xe827;" d="M0 350q0 207 147 354t353 146 354-146 146-354-146-354-354-146-353 146-147 354z m219-156l125-125 156 156 156-156 125 125-156 156 156 156-125 125-156-156-156 156-125-125 156-156z" horiz-adv-x="1000" />

<glyph glyph-name="finish" unicode="&#xe828;" d="M868 233h-341c3-20 3-40 0-59h341c40 0 73-33 73-74s-33-73-73-73h-635c4-20 4-40 0-59h635c73 0 132 59 132 132s-59 133-132 133z m-779-147c-49 0-89-40-89-89s40-89 89-89 89 40 89 89c0 49-40 89-89 89z m0-119c-17 0-30 14-30 30s13 31 30 31 30-14 30-31c0-16-13-30-30-30z m265 119c64 0 117 53 117 117 0 55-38 101-88 114l0 121h293c23 0 37 25 25 44l-79 132 80 133c11 20-3 45-26 45-341 0-323 0-326-1-15-1-26-14-26-29 0-234 0-409 0-445-50-13-88-59-88-114 0-64 53-117 118-117z m0 176c34 0 58-27 58-59 0-32-26-58-58-58s-59 26-59 58c0 32 25 59 59 59z" horiz-adv-x="1000" />

<glyph glyph-name="reverse" unicode="&#xe829;" d="M1248 278h-1036l1 71-207-236h1188v27c-5-5-10-10-15-13-5-4-12-7-19-10v37c11 5 20 11 26 18 6 7 11 16 14 26h28v-85h-244c9 9 15 16 17 21 3 5 4 10 4 15 0 5-1 9-4 12-3 4-6 6-10 6-4 0-8-2-10-6-3-3-5-10-6-19l-33 3c1 13 4 23 7 30 4 8 9 13 15 17 6 4 15 6 26 6 12 0 21-2 27-6 7-3 12-9 16-17 3-7 5-16 5-25 0-10-2-19-6-29-2-2-3-5-5-8h-280l1 21c2 0 3 0 4 0 5 0 8 2 11 6 3 3 5 8 5 13 0 5-1 9-4 12-2 3-5 5-9 5-3 0-7-2-9-5-2-4-4-9-5-17l-31 7c2 14 7 25 15 32 7 7 18 11 31 11 16 0 27-4 34-12 7-8 10-18 10-30 0-7-1-14-4-19-3-6-7-11-13-16 5-1 8-3 11-5 1-1 1-2 2-3h-640v82h35l40-82h5v82h34v-82h977z m-1057-157v-8h4z m-184-8l206-232-1 71 1036 0 1 161h-979v-82h-34l-41 82h-4v-82h-35v82h640c3-3 5-6 7-10 2-6 3-12 3-20 0-9-2-19-5-27-4-9-9-16-16-21-7-4-16-7-27-7-11 0-19 2-25 6-7 3-12 8-16 15-4 7-7 15-9 25l33 6c1-9 3-15 6-19 3-3 6-5 10-5 5 0 9 2 12 7 3 4 4 10 4 18 0 7-1 13-4 17-3 4-7 7-12 7-2 0-6-1-11-3l1 11h280c-4-7-11-14-18-22-7-6-12-10-14-13-2-2-5-6-8-10h52v-37h-99c1 14 4 26 10 38 6 12 17 26 32 42 1 1 2 2 2 2h244v-82h-34v82z m224 0l5-9v9z m155-36h36v-46h-36z m56 0h35v-46h-35z m55 0h36v-46h-36z m-208-1h36v-37c0-14-2-25-6-33-5-8-12-15-22-21l-8 20c7 4 11 8 13 12 3 4 4 9 4 14h-17z m302 0h36v-37c0-14-2-25-7-33-4-8-11-15-21-21l-8 20c7 4 11 8 13 12 3 4 4 9 4 14h-17z m232 0h35v-37c0-14-2-25-6-33-4-8-11-15-21-21l-8 20c6 4 11 8 13 12 2 4 4 9 4 14h-17z m238 0h35v-37c0-14-2-25-6-33-4-8-12-15-22-21l-7 20c6 4 10 8 13 12 2 4 3 9 4 14h-17z m185 772l1-163-510-29h510l0-74-757-29h758l0-163h-245v59h-55v-59h-206-645c-69 20-101 45-96 74 109 236 242 354 398 354l68 30h275 206v-59h55v59z m-827-89h-87c-35 0-98-44-190-132 69-10 132-25 190-45z" horiz-adv-x="1250" />

<glyph glyph-name="direct" unicode="&#xe82a;" d="M1028 361l2-76-1020-1v-161h53v27c-5-5-10-10-16-14-5-3-11-6-19-10v38c12 5 20 11 27 18 6 7 11 15 14 26h28v-85h189c8 9 14 16 16 21 3 5 5 10 5 14 0 5-2 10-5 13-2 4-6 6-10 6-4 0-7-2-10-6-3-4-4-10-5-19l-33 3c1 13 3 23 7 30 3 8 8 13 14 17 7 4 15 6 27 6 11 0 20-2 27-6 6-3 11-9 15-17 4-7 6-16 6-25 0-10-3-20-7-29-1-2-3-5-5-8h175l2 21c1 0 3 0 4 0 4 0 8 2 11 5 3 4 4 9 4 14 0 5-1 9-3 12-2 3-5 4-9 4-4 0-7-1-10-4-2-4-4-9-5-17l-31 7c3 14 8 24 15 32 7 7 18 11 31 11 16 0 27-4 34-12 7-8 11-18 11-30 0-7-2-14-5-20-2-5-7-10-12-15 4-1 8-3 10-5 1-1 2-2 3-3h472v82h35l40-82h4v82h35v-82h112z m32-230v-8h4z m-1049-8v-161l1020-1-2-75 223 237h-113v-82h-35l-40 82h-4v-82h-35v82h-472c2-3 5-6 6-10 3-6 4-12 4-20 0-10-2-19-6-28-3-8-9-15-15-20-7-4-16-7-27-7-11 0-20 2-26 5-6 4-11 9-15 16-4 7-7 15-10 25l33 6c2-9 4-15 6-19 3-3 7-5 11-5 4 0 8 2 11 7 3 4 4 10 4 18 0 7-1 13-4 17-3 4-7 6-11 6-3 0-7 0-11-2l0 11h-175c-4-7-10-14-18-22-7-6-11-10-13-13-3-2-5-6-8-10h51v-37h-99c1 13 5 26 10 38 6 12 17 26 33 42 1 1 1 1 2 2h-189v-82h-34v82z m1089 0l4-9v9z m-410-36h36v-46h-36z m56 0h35v-46h-35z m55 0h35v-46h-35z m-665-1h35v-37c0-14-2-25-6-33-4-8-11-15-21-21l-8 20c6 4 10 8 13 12 2 4 4 9 4 14h-17z m222 0h35v-37c0-14-2-25-6-33-4-8-12-15-22-21l-7 20c6 4 10 8 13 12 2 4 3 9 4 14h-17z m222 0h35v-37c0-14-2-25-6-33-5-8-12-15-22-21l-7 20c6 4 10 8 12 12 3 4 4 9 4 14h-16z m332 0h35v-37c0-14-2-25-6-33-4-8-11-15-21-21l-8 20c6 4 11 8 13 12 2 4 4 9 4 14h-17z m-910 762l-1-163 510-29-510 0 0-74 758-29-758 0-1-163 245 0 0 59 55 0 0-59 206 0 646 0c68 20 100 45 96 74-110 236-243 354-399 354l-68 30-275 0-206 0 0-59-55 0 0 59-243 0z m828-89l86 0c35 0 98-44 191-132-70-10-133-25-191-45l-86 177z" horiz-adv-x="1250" />

<glyph glyph-name="direct-na" unicode="&#xe82b;" d="M1040 349l207-236h-30l0 1-166 199v-4l2-58-1034 5 1-143h-14l-1 165h1036z m206-236l-206-232 1 71-1036 0-1 161h16l2-144 1038 2-1-43 158 185z m-463 728l68-29c156 0 289-118 398-355 5-29-27-54-96-74h-645-506l2 458h504z m-6-26h-265-485l-1-406h486 621c66 18 97 39 92 66-105 209-233 314-382 314z" horiz-adv-x="1250" />

<glyph glyph-name="reverse-na-1" unicode="&#xe82c;" d="M212 349l-207-236h55l0 1 123 141c0-20-1-14-1-34l1013 0-1-108 53 0 0 165h-1036z m-206-236l206-232-1 71 1036 0 0 161-53 0 1-107-1013 3-2-33-120 137z m463 728l-68-29c-156 0-289-118-399-355-4-29 28-54 96-74h646 506l-2 458h-504z m6-56h264 453l1-346h-454-620c-69 0-64 12-53 36 100 212 194 284 343 284z" horiz-adv-x="1250" />

<glyph glyph-name="direct-1" unicode="&#xe82d;" d="M1028 361l2-76-1020-1v-161h53v27c-5-5-10-10-16-14-5-3-11-6-19-10v38c12 5 20 11 27 18 6 7 11 15 14 26h28v-85h189c8 9 14 16 16 21 3 5 5 10 5 14 0 5-2 10-5 13-2 4-6 6-10 6-4 0-7-2-10-6-3-4-4-10-5-19l-33 3c1 13 3 23 7 30 3 8 8 13 14 17 7 4 15 6 27 6 11 0 20-2 27-6 6-3 11-9 15-17 4-7 6-16 6-25 0-10-3-20-7-29-1-2-3-5-5-8h175l2 21c1 0 3 0 4 0 4 0 8 2 11 5 3 4 4 9 4 14 0 5-1 9-3 12-2 3-5 4-9 4-4 0-7-1-10-4-2-4-4-9-5-17l-31 7c3 14 8 24 15 32 7 7 18 11 31 11 16 0 27-4 34-12 7-8 11-18 11-30 0-7-2-14-5-20-2-5-7-10-12-15 4-1 8-3 10-5 1-1 2-2 3-3h472v82h35l40-82h4v82h35v-82h112z m32-230v-8h4z m-1049-8v-161l1020-1-2-75 223 237h-113v-82h-35l-40 82h-4v-82h-35v82h-472c2-3 5-6 6-10 3-6 4-12 4-20 0-10-2-19-6-28-3-8-9-15-15-20-7-4-16-7-27-7-11 0-20 2-26 5-6 4-11 9-15 16-4 7-7 15-10 25l33 6c2-9 4-15 6-19 3-3 7-5 11-5 4 0 8 2 11 7 3 4 4 10 4 18 0 7-1 13-4 17-3 4-7 6-11 6-3 0-7 0-11-2l0 11h-175c-4-7-10-14-18-22-7-6-11-10-13-13-3-2-5-6-8-10h51v-37h-99c1 13 5 26 10 38 6 12 17 26 33 42 1 1 1 1 2 2h-189v-82h-34v82z m1089 0l4-9v9z m-410-36h36v-46h-36z m56 0h35v-46h-35z m55 0h35v-46h-35z m-665-1h35v-37c0-14-2-25-6-33-4-8-11-15-21-21l-8 20c6 4 10 8 13 12 2 4 4 9 4 14h-17z m222 0h35v-37c0-14-2-25-6-33-4-8-12-15-22-21l-7 20c6 4 10 8 13 12 2 4 3 9 4 14h-17z m222 0h35v-37c0-14-2-25-6-33-5-8-12-15-22-21l-7 20c6 4 10 8 12 12 3 4 4 9 4 14h-16z m332 0h35v-37c0-14-2-25-6-33-4-8-11-15-21-21l-8 20c6 4 11 8 13 12 2 4 4 9 4 14h-17z m-910 762l-1-163 510-29-510 0 0-74 758-29-758 0-1-163 245 0 0 59 55 0 0-59 206 0 646 0c68 20 100 45 96 74-110 236-243 354-399 354l-68 30-275 0-206 0 0-59-55 0 0 59-243 0z m828-89l86 0c35 0 98-44 191-132-70-10-133-25-191-45l-86 177z" horiz-adv-x="1250" />

<glyph glyph-name="direct-na-1" unicode="&#xe82e;" d="M1040 349l207-236h-55l0 1-123 141c0-20 1-14 1-34l-1013 0 1-108-54 0 1 165h1036z m206-236l-206-232 1 71-1036 0-1 161 54 0-1-107 1013 3 1-33 121 137z m-463 728l68-29c156 0 289-118 398-355 5-29-27-54-96-74h-645-506l2 458h504z m-6-56h-265-452l-2-346h454 621c68 0 64 12 52 36-99 212-193 284-342 284z" horiz-adv-x="1250" />

<glyph glyph-name="reverse-1" unicode="&#xe82f;" d="M1248 278h-1036l1 71-207-236h1188v27c-5-5-10-10-15-13-5-4-12-7-19-10v37c11 5 20 11 26 18 6 7 11 16 14 26h28v-85h-244c9 9 15 16 17 21 3 5 4 10 4 15 0 5-1 9-4 12-3 4-6 6-10 6-4 0-8-2-10-6-3-3-5-10-6-19l-33 3c1 13 4 23 7 30 4 8 9 13 15 17 6 4 15 6 26 6 12 0 21-2 27-6 7-3 12-9 16-17 3-7 5-16 5-25 0-10-2-19-6-29-2-2-3-5-5-8h-280l1 21c2 0 3 0 4 0 5 0 8 2 11 6 3 3 5 8 5 13 0 5-1 9-4 12-2 3-5 5-9 5-3 0-7-2-9-5-2-4-4-9-5-17l-31 7c2 14 7 25 15 32 7 7 18 11 31 11 16 0 27-4 34-12 7-8 10-18 10-30 0-7-1-14-4-19-3-6-7-11-13-16 5-1 8-3 11-5 1-1 1-2 2-3h-640v82h35l40-82h5v82h34v-82h977z m-1057-157v-8h4z m-184-8l206-232-1 71 1036 0 1 161h-979v-82h-34l-41 82h-4v-82h-35v82h640c3-3 5-6 7-10 2-6 3-12 3-20 0-9-2-19-5-27-4-9-9-16-16-21-7-4-16-7-27-7-11 0-19 2-25 6-7 3-12 8-16 15-4 7-7 15-9 25l33 6c1-9 3-15 6-19 3-3 6-5 10-5 5 0 9 2 12 7 3 4 4 10 4 18 0 7-1 13-4 17-3 4-7 7-12 7-2 0-6-1-11-3l1 11h280c-4-7-11-14-18-22-7-6-12-10-14-13-2-2-5-6-8-10h52v-37h-99c1 14 4 26 10 38 6 12 17 26 32 42 1 1 2 2 2 2h244v-82h-34v82z m224 0l5-9v9z m155-36h36v-46h-36z m56 0h35v-46h-35z m55 0h36v-46h-36z m-208-1h36v-37c0-14-2-25-6-33-5-8-12-15-22-21l-8 20c7 4 11 8 13 12 3 4 4 9 4 14h-17z m302 0h36v-37c0-14-2-25-7-33-4-8-11-15-21-21l-8 20c7 4 11 8 13 12 3 4 4 9 4 14h-17z m232 0h35v-37c0-14-2-25-6-33-4-8-11-15-21-21l-8 20c6 4 11 8 13 12 2 4 4 9 4 14h-17z m238 0h35v-37c0-14-2-25-6-33-4-8-12-15-22-21l-7 20c6 4 10 8 13 12 2 4 3 9 4 14h-17z m185 772l1-163-510-29h510l0-74-757-29h758l0-163h-245v59h-55v-59h-206-645c-69 20-101 45-96 74 109 236 242 354 398 354l68 30h275 206v-59h55v59z m-827-89h-87c-35 0-98-44-190-132 69-10 132-25 190-45z" horiz-adv-x="1250" />

<glyph glyph-name="dg-message" unicode="&#xf0e6;" d="M393 636q-85 0-160-29t-118-79-44-107q0-45 30-88t83-73l54-32-19-46q19 11 34 21l25 18 30-6q43-8 85-8 85 0 160 29t118 79 43 106-43 107-118 79-160 29z m0 71q106 0 197-38t143-104 53-144-53-143-143-104-197-38q-48 0-98 9-70-49-155-72-21-5-48-9h-2q-6 0-12 5t-6 12q-1 1-1 3t1 4 1 3l1 3t2 3 2 3 3 3 2 2q3 3 13 14t15 16 12 17 14 21 11 25q-69 40-108 98t-40 125q0 78 53 144t143 104 197 38z m459-652q5-14 11-25t14-21 13-16 14-17 13-14q0 0 2-2t3-3 2-3 2-3l1-3t1-3 1-4-1-3q-2-8-7-13t-12-4q-28 4-48 9-86 23-156 72-50-9-98-9-151 0-263 74 32-3 49-3 90 0 172 25t148 72q69 52 107 119t37 141q0 43-13 85 72-39 114-99t42-128q0-67-40-126t-108-98z" horiz-adv-x="1000" />

<glyph glyph-name="dg-database" unicode="&#xf1c0;" d="M429 421q132 0 247 24t181 71v-95q0-38-57-71t-157-52-214-19-215 19-156 52-58 71v95q66-47 181-71t248-24z m0-428q132 0 247 24t181 71v-95q0-39-57-72t-157-52-214-19-215 19-156 52-58 72v95q66-47 181-71t248-24z m0 214q132 0 247 24t181 71v-95q0-38-57-71t-157-52-214-20-215 20-156 52-58 71v95q66-47 181-71t248-24z m0 643q116 0 214-19t157-52 57-72v-71q0-39-57-72t-157-52-214-19-215 19-156 52-58 72v71q0 39 58 72t156 52 215 19z" horiz-adv-x="857.1" />

<glyph glyph-name="dg-pdf" unicode="&#xf1c1;" d="M819 638q16-16 27-42t11-50v-642q0-23-15-38t-38-16h-750q-23 0-38 16t-16 38v892q0 23 16 38t38 16h500q22 0 49-11t42-27z m-248 136v-210h210q-5 17-12 23l-175 175q-6 7-23 12z m215-853v572h-232q-23 0-38 16t-16 37v233h-429v-858h715z m-287 331q18-14 47-31 33 4 65 4 82 0 99-27 9-13 1-29 0-1-1-1l-1-2v0q-3-21-39-21-27 0-64 11t-73 29q-123-13-219-46-85-146-135-146-8 0-15 4l-14 7q0 0-3 2-6 6-4 20 5 23 32 51t73 54q8 5 13-3 1-1 1-2 29 47 60 110 38 76 58 146-13 46-17 89t4 71q6 22 23 22h12q13 0 20-8 10-12 5-38-1-3-2-4 0-2 0-5v-17q-1-68-8-107 31-91 82-133z m-321-229q29 13 76 88-29-22-49-47t-27-41z m222 513q-9-23-2-73 1 4 4 24 0 2 4 24 1 3 3 5-1 0-1 1-1 1-1 2 0 12-7 20 0-1 0-1v-2z m-70-368q76 30 159 45-1 0-7 5t-9 8q-43 37-71 98-15-48-46-110-17-31-26-46z m361 9q-13 13-78 13 42-16 69-16 8 0 10 1 0 0-1 2z" horiz-adv-x="857.1" />

<glyph glyph-name="dg-html" unicode="&#xf1c9;" d="M819 638q16-16 27-42t11-50v-642q0-23-15-38t-38-16h-750q-23 0-38 16t-16 38v892q0 23 16 38t38 16h500q22 0 49-11t42-27z m-248 136v-210h210q-5 17-12 23l-175 175q-6 7-23 12z m215-853v572h-232q-23 0-38 16t-16 37v233h-429v-858h715z m-518 500q4 7 12 7t13-3l28-21q7-5 7-12t-3-13l-102-136 102-136q4-6 3-13t-7-12l-28-21q-6-4-13-4t-12 7l-126 168q-8 11 0 22z m447-167q8-11 0-22l-126-168q-4-6-11-7t-14 4l-28 21q-6 5-7 12t3 13l102 136-102 136q-4 6-3 13t7 12l28 21q6 4 14 3t11-7z m-346-258q-7 1-11 8t-3 13l77 464q1 7 7 11t14 3l35-5q7-2 11-8t3-13l-77-464q-1-7-7-11t-13-3z" horiz-adv-x="857.1" />

<glyph glyph-name="dg-settings" unicode="&#xf1de;" d="M196 64v-71h-196v71h196z m197 72q14 0 25-11t11-25v-143q0-14-11-25t-25-11h-143q-14 0-25 11t-11 25v143q0 15 11 25t25 11h143z m89 214v-71h-482v71h482z m-357 286v-72h-125v72h125z m732-572v-71h-411v71h411z m-536 643q15 0 26-10t10-26v-142q0-15-10-25t-26-11h-142q-15 0-25 11t-11 25v142q0 15 11 26t25 10h142z m358-286q14 0 25-10t10-25v-143q0-15-10-25t-25-11h-143q-15 0-25 11t-11 25v143q0 14 11 25t25 10h143z m178-71v-71h-125v71h125z m0 286v-72h-482v72h482z" horiz-adv-x="857.1" />
</font>
</defs>
</svg>
